# xmcd
#
# Track frame offsets:
#   182
#   16237
#   30707
#   44255
#   58630
#   68420
#   82692
#   95080
#   106862
#   117210
#   130160
#   142515
#   162855
#   182010
#   191847
#   199027
#   212335
#   226347
#   239442
#   250040
#
# Disc length: 3450 seconds
#
# Revision: 0
# Processed by: cddbd v1.5.1PL2 Copyright (c) Steve Scherf et al.
# Submitted via: GXTranscoder 2.0.1939
#
DISCID=f90d7814
DTITLE=Gloria Benavides - Los enamorados de siempre
DYEAR=1900
DGENRE=Blues
TTITLE0=Los enamorados de siempre
TTITLE1=Como lo cambia la vida
TTITLE2=Balapapa
TTITLE3=Muchacho malo
TTITLE4=Prima o pi
TTITLE5=Era solo una comedia
TTITLE6=Tengo que olvidarte
TTITLE7=Estas botas son para caminar
TTITLE8=Marionetas
TTITLE9=Por que no fui yo tu primer amor
TTITLE10=Pero ahora no
TTITLE11=Yo no estaba contigo
TTITLE12=Si amor encontraras
TTITLE13=Pequeño amorcito
TTITLE14=Ahora debo sufrir
TTITLE15=Yo esperare
TTITLE16=Una chica puede cambiar
TTITLE17=Si cada dia sale el sol
TTITLE18=Princesa de luna
TTITLE19=Patati patata
EXTD=
EXTT0=
EXTT1=
EXTT2=
EXTT3=
EXTT4=
EXTT5=
EXTT6=
EXTT7=
EXTT8=
EXTT9=
EXTT10=
EXTT11=
EXTT12=
EXTT13=
EXTT14=
EXTT15=
EXTT16=
EXTT17=
EXTT18=
EXTT19=
PLAYORDER=
